<svg xmlns="http://www.w3.org/2000/svg" xmlns:svg="http://www.w3.org/2000/svg" id="Calque_1" width="281.815" height="280.459" x="0" y="0" enable-background="new 0 0 841.9 595.3" version="1.1" viewBox="0 0 281.815 280.459" xml:space="preserve"><metadata id="metadata4270"/><g id="layer2" transform="translate(-42.69817,44.343929)"><path id="path3054" d="M 150.91849,233.75497 C 120.27723,227.27317 101.42107,216.66658 79.500781,193.33208 56.166283,168.58337 44.263332,141.94904 42.84912,111.30778 41.552759,83.494945 48.505968,68.056464 67.59783,55.564256 c 10.370888,-6.717507 16.616991,-8.367421 29.46275,-7.896017 9.42808,0.353553 11.90295,0.942808 18.85617,4.360487 17.91335,8.838825 32.88042,28.873497 39.24438,52.679404 2.12132,8.01386 2.00346,26.63432 -0.2357,41.12999 -2.47488,15.67419 -1.76777,36.29811 1.64991,45.72619 5.0676,14.14212 18.50262,29.93416 31.93763,37.59447 12.84576,7.30676 13.31716,6.95321 -8.13172,6.95321 -14.14212,-0.2357 -22.156,-0.82496 -29.46276,-2.35702 z" style="fill:#e1e04e"/><path id="path3052" d="m 212.43672,224.09119 c -8.24957,-1.64992 -16.73484,-6.95321 -26.39862,-16.49914 -11.3137,-11.19585 -13.31716,-16.61699 -13.19931,-35.3553 0.11785,-10.25304 0.58925,-13.78857 3.06412,-20.27037 4.71404,-12.61006 10.13519,-20.62393 21.56674,-32.17333 12.13865,-12.13865 17.32409,-15.08492 40.54074,-22.863091 8.01387,-2.710573 17.5598,-6.363954 21.33103,-8.24957 22.74525,-11.431547 37.71232,-36.180259 37.71232,-62.107479 0,-12.256504 2.71058,-10.724441 11.078,6.128252 11.43154,23.216647 16.38129,43.015617 16.38129,65.996562 0,15.792036 -2.00347,26.870026 -7.66032,42.779916 -12.61006,35.8267 -34.29464,61.63607 -63.99309,76.36745 -14.61353,7.18891 -26.51648,9.07452 -40.4229,6.2461 z" style="fill:#dd7927"/><path id="path3020" d="M 204.65856,72.181249 C 189.22008,69.706378 179.32059,64.638785 158.1074,48.021792 137.71918,32.111907 129.23391,28.576377 110.967,27.75142 95.646368,27.044314 87.514649,28.92993 72.901125,36.472394 c -5.774699,2.946275 -10.724441,5.067593 -11.077994,4.71404 -1.17851,-1.17851 4.831891,-12.727908 13.199312,-25.337965 9.192378,-13.9064179 25.691517,-31.230515 36.769517,-38.655128 13.67072,-9.192378 27.81284,-15.084928 47.6118,-19.681117 10.72446,-2.474871 52.20801,-2.474871 61.75394,0 34.53034,8.956676 58.21839,30.64126 60.33971,55.38997 0.94281,10.960143 -1.17851,24.395157 -5.18544,31.584068 -6.12826,11.313696 -21.21318,22.627394 -35.1196,26.398626 -7.89602,1.767765 -27.69499,2.592722 -36.53381,1.296361 z" style="fill:#8e3089"/></g></svg>